<?xml version="1.0" encoding="UTF-8"?>
<svg version="1.1" width="80%" height="80%" xmlns="http://www.w3.org/2000/svg">
 <path d="m1.9525 59.6h0.785c9.472-0.912 13.911-3.593 19.136-11.431l18.228-27.561c6.663-10.129 15.742-15.483 27.953-15.743l0.786 0.127v10.452h-0.786c-9.535 0.98-13.91 3.658-19.14 11.432l-18.223 27.564c-6.726 10.191-15.805 15.482-27.954 15.743l-0.785-0.13zm0-54.608 0.785-0.127c13.322 0.26 23.904 7.117 29.786 19.201l-7.906 11.89c-1.503-12.673-9.664-19.336-21.88-20.512h-0.786v-10.452zm66.888 65.06-0.786 0.13c-13.39-0.26-23.972-7.25-29.787-19.204l7.907-11.885c1.502 12.672 9.6 19.269 21.88 20.507h0.786zm4.894-37.14c5.286-2.485 11.409-2.683 17.113 0h2e-3c5.704 2.682 11.825 2.484 17.11 0 5.288-2.485 11.41-2.683 17.11 0h6e-3c5.701 2.682 11.824 2.484 17.109 0v-9.224c-5.285 2.484-11.408 2.683-17.109 0h-6e-3c-5.7-2.683-11.822-2.484-17.11 0-5.285 2.484-11.407 2.683-17.11 0h-2e-3c-5.705-2.683-11.826-2.484-17.112 0v9.224zm0-19.456c5.286-2.486 11.409-2.683 17.113 0h2e-3c5.704 2.682 11.825 2.484 17.11 0 5.288-2.486 11.41-2.683 17.11 0h6e-3c5.701 2.682 11.824 2.484 17.109 0v-9.226c-5.285 2.483-11.408 2.682-17.109 0h-6e-3c-5.7-2.684-11.822-2.486-17.11 0-5.285 2.483-11.407 2.682-17.11 0h-2e-3c-5.705-2.684-11.826-2.486-17.112 0v9.226zm0 56.353c5.286-2.484 11.409-2.681 17.113 0h2e-3c5.704 2.683 11.825 2.486 17.11 0 5.288-2.484 11.41-2.681 17.11 0h6e-3c5.701 2.683 11.824 2.486 17.109 0v-9.222c-5.285 2.485-11.408 2.683-17.109 0h-6e-3c-5.7-2.682-11.822-2.484-17.11 0-5.285 2.485-11.407 2.683-17.11 0h-2e-3c-5.705-2.682-11.826-2.484-17.112 0v9.222zm0-18.445c5.286-2.485 11.409-2.685 17.113 0h2e-3c5.704 2.683 11.825 2.485 17.11 0 5.288-2.485 11.41-2.685 17.11 0h6e-3c5.701 2.683 11.824 2.485 17.109 0v-9.227c-5.285 2.484-11.408 2.682-17.109 0h-6e-3c-5.7-2.683-11.822-2.485-17.11 0-5.285 2.484-11.407 2.682-17.11 0h-2e-3c-5.705-2.683-11.826-2.485-17.112 0v9.227z" fill="#0070c0" style="mix-blend-mode:color-dodge"/>
</svg>
