<?xml version="1.0" encoding="UTF-8" standalone="no"?>
<!DOCTYPE svg PUBLIC "-//W3C//DTD SVG 1.1//EN" "http://www.w3.org/Graphics/SVG/1.1/DTD/svg11.dtd">
<svg width="100%" height="100%" viewBox="0 0 684 167" version="1.1" xmlns="http://www.w3.org/2000/svg" xmlns:xlink="http://www.w3.org/1999/xlink" xml:space="preserve" xmlns:serif="http://www.serif.com/" style="fill-rule:evenodd;clip-rule:evenodd;stroke-linejoin:round;stroke-miterlimit:2;">
    <g transform="matrix(1,0,0,1,-219.1,-167.785)">
        <path d="M491.41,186.54C490.31,186.54 489.48,186.26 488.91,185.7C488.34,185.14 488.06,184.38 488.06,183.42C488.06,182.46 488.35,181.69 488.94,181.11C489.53,180.53 490.35,180.24 491.41,180.24C492.47,180.24 493.29,180.52 493.88,181.08C494.47,181.64 494.76,182.42 494.76,183.42C494.76,184.34 494.47,185.09 493.88,185.67C493.29,186.25 492.47,186.54 491.41,186.54ZM489.24,223.2L489.24,193.07L493.64,193.07L493.64,223.2L489.24,223.2Z" style="fill:rgb(48,44,106);fill-rule:nonzero;"/>
    </g>
    <g transform="matrix(1,0,0,1,-219.1,-167.785)">
        <path d="M505.03,223.2L505.03,193.07L509.37,193.07L509.55,199.36L508.85,199.65C509.24,198.34 510,197.15 511.14,196.07C512.27,194.99 513.64,194.12 515.22,193.44C516.81,192.77 518.44,192.43 520.12,192.43C522.39,192.43 524.29,192.87 525.81,193.76C527.34,194.65 528.49,196.01 529.27,197.86C530.05,199.71 530.44,202.06 530.44,204.9L530.44,223.2L525.98,223.2L525.98,205.13C525.98,203.13 525.72,201.48 525.19,200.19C524.66,198.9 523.85,197.95 522.75,197.33C521.65,196.72 520.3,196.43 518.7,196.46C517.37,196.46 516.14,196.68 515,197.12C513.86,197.56 512.89,198.17 512.06,198.94C511.24,199.71 510.59,200.6 510.12,201.6C509.65,202.6 509.42,203.68 509.42,204.83L509.42,223.19L506.31,223.19C505.96,223.19 505.54,223.2 505.03,223.2Z" style="fill:rgb(48,44,106);fill-rule:nonzero;"/>
    </g>
    <g transform="matrix(1,0,0,1,-219.1,-167.785)">
        <path d="M538.66,197.34L538.66,193.3L556.39,193.3L556.39,197.34L538.66,197.34ZM544.12,223.2L544.12,188.39C544.12,186.89 544.45,185.56 545.12,184.41C545.79,183.26 546.73,182.34 547.97,181.67C549.2,181 550.64,180.66 552.28,180.66C553.53,180.66 554.66,180.88 555.66,181.32C556.66,181.76 557.49,182.37 558.15,183.14L556.62,186.55C555.99,185.9 555.32,185.42 554.59,185.14C553.87,184.85 553.17,184.71 552.51,184.71C551.65,184.71 550.92,184.85 550.34,185.14C549.75,185.43 549.31,185.85 549.02,186.41C548.73,186.97 548.58,187.63 548.58,188.4L548.58,223.21L545.3,223.21C544.91,223.2 544.51,223.2 544.12,223.2Z" style="fill:rgb(48,44,106);fill-rule:nonzero;"/>
    </g>
    <g transform="matrix(1,0,0,1,-219.1,-167.785)">
        <path d="M576.94,223.78C573.89,223.78 571.18,223.11 568.81,221.76C566.44,220.41 564.58,218.55 563.23,216.16C561.88,213.77 561.2,211.06 561.2,208.02C561.2,205.02 561.88,202.34 563.23,200C564.58,197.65 566.44,195.81 568.81,194.46C571.18,193.11 573.89,192.44 576.94,192.44C579.95,192.44 582.64,193.11 585.01,194.46C587.38,195.81 589.24,197.65 590.59,200C591.94,202.35 592.62,205.02 592.62,208.02C592.62,211.06 591.94,213.77 590.59,216.16C589.24,218.55 587.38,220.41 585.01,221.76C582.64,223.1 579.95,223.78 576.94,223.78ZM576.94,219.68C579.09,219.68 581.01,219.17 582.69,218.15C584.37,217.13 585.68,215.75 586.62,213.99C587.56,212.24 588.03,210.25 588.03,208.01C588.03,205.78 587.56,203.8 586.62,202.06C585.68,200.33 584.37,198.97 582.69,197.99C581.01,197.01 579.09,196.52 576.94,196.52C574.79,196.52 572.86,197.01 571.16,197.99C569.46,198.97 568.13,200.34 567.17,202.09C566.21,203.84 565.75,205.81 565.79,208.01C565.75,210.24 566.21,212.23 567.17,213.99C568.13,215.74 569.46,217.13 571.16,218.15C572.86,219.17 574.79,219.68 576.94,219.68Z" style="fill:rgb(48,44,106);fill-rule:nonzero;"/>
    </g>
    <g transform="matrix(1,0,0,1,-219.1,-167.785)">
        <path d="M600.77,223.2L600.77,193.07L605.17,193.07L605.29,201.09L604.82,199.99C605.25,198.64 605.94,197.39 606.9,196.24C607.86,195.09 609,194.16 610.33,193.47C611.66,192.78 613.13,192.43 614.73,192.43C615.39,192.43 616.02,192.48 616.61,192.57C617.2,192.67 617.69,192.79 618.08,192.94L616.85,197.79C616.34,197.56 615.82,197.4 615.29,197.3C614.76,197.2 614.26,197.16 613.79,197.16C612.46,197.16 611.27,197.39 610.21,197.85C609.15,198.31 608.25,198.96 607.51,199.78C606.77,200.61 606.2,201.56 605.81,202.64C605.42,203.72 605.22,204.87 605.22,206.1L605.22,223.19L600.77,223.19L600.77,223.2Z" style="fill:rgb(48,44,106);fill-rule:nonzero;"/>
    </g>
    <g transform="matrix(1,0,0,1,-219.1,-167.785)">
        <path d="M624.37,223.2L624.37,193.07L628.77,193.07L628.89,199.94L628.01,200.23C628.32,199.08 628.84,198.03 629.57,197.08C630.29,196.14 631.16,195.32 632.18,194.63C633.2,193.94 634.31,193.41 635.53,193.04C636.74,192.67 638.01,192.49 639.35,192.49C640.95,192.49 642.39,192.75 643.66,193.27C644.93,193.79 646.01,194.68 646.89,195.93C647.77,197.18 648.45,198.83 648.91,200.87L647.85,200.35L648.26,199.37C648.65,198.48 649.23,197.63 649.99,196.8C650.75,195.97 651.63,195.23 652.63,194.58C653.63,193.93 654.72,193.42 655.92,193.05C657.11,192.68 658.34,192.5 659.59,192.5C661.74,192.5 663.56,192.95 665.05,193.86C666.54,194.76 667.66,196.14 668.43,197.99C669.19,199.84 669.57,202.19 669.57,205.03L669.57,223.21L665.05,223.21L665.05,205.26C665.05,203.26 664.79,201.62 664.29,200.35C663.78,199.08 663.03,198.13 662.03,197.49C661.03,196.85 659.77,196.54 658.24,196.54C656.91,196.54 655.69,196.76 654.57,197.2C653.45,197.64 652.49,198.26 651.69,199.05C650.89,199.84 650.26,200.73 649.81,201.73C649.36,202.73 649.14,203.81 649.14,204.96L649.14,223.2L644.68,223.2L644.68,205.19C644.68,203.27 644.42,201.67 643.89,200.4C643.36,199.13 642.59,198.17 641.57,197.51C640.55,196.86 639.3,196.53 637.81,196.53C636.52,196.53 635.32,196.75 634.23,197.19C633.13,197.63 632.18,198.24 631.38,199.01C630.58,199.78 629.95,200.67 629.5,201.67C629.05,202.67 628.82,203.75 628.82,204.9L628.82,223.2L624.37,223.2Z" style="fill:rgb(48,44,106);fill-rule:nonzero;"/>
    </g>
    <g transform="matrix(1,0,0,1,-219.1,-167.785)">
        <path d="M691.64,223.78C688.98,223.78 686.57,223.1 684.42,221.73C682.27,220.36 680.57,218.5 679.31,216.13C678.06,213.76 677.43,211.08 677.43,208.08C677.43,205.04 678.08,202.35 679.37,200C680.66,197.65 682.39,195.81 684.56,194.46C686.73,193.11 689.17,192.44 691.87,192.44C693.47,192.44 694.96,192.67 696.33,193.13C697.7,193.59 698.92,194.24 700,195.06C701.08,195.89 701.97,196.85 702.7,197.95C703.42,199.05 703.92,200.23 704.2,201.5L702.91,200.86L703.09,193.07L707.49,193.07L707.49,223.2L703.03,223.2L703.03,215.81L704.2,215.06C703.93,216.21 703.4,217.32 702.62,218.38C701.84,219.44 700.89,220.37 699.77,221.18C698.66,221.99 697.4,222.62 696.01,223.08C694.63,223.55 693.17,223.78 691.64,223.78ZM692.64,219.62C694.67,219.62 696.49,219.13 698.1,218.15C699.7,217.17 700.97,215.8 701.89,214.05C702.81,212.3 703.27,210.31 703.27,208.07C703.27,205.84 702.81,203.86 701.89,202.12C700.97,200.39 699.71,199.02 698.1,198.02C696.49,197.02 694.67,196.52 692.64,196.52C690.57,196.52 688.74,197.02 687.15,198.02C685.56,199.02 684.31,200.39 683.39,202.12C682.47,203.85 682.01,205.83 682.01,208.07C682.01,210.26 682.46,212.24 683.36,213.99C684.26,215.74 685.51,217.12 687.12,218.12C688.73,219.12 690.57,219.62 692.64,219.62Z" style="fill:rgb(48,44,106);fill-rule:nonzero;"/>
    </g>
    <g transform="matrix(1,0,0,1,-219.1,-167.785)">
        <path d="M715.12,197.22L715.12,193.06L734.2,193.06L734.2,197.22L715.12,197.22ZM722.05,223.2L722.05,185.16L726.45,185.16L726.45,223.2L722.05,223.2Z" style="fill:rgb(48,44,106);fill-rule:nonzero;"/>
    </g>
    <g transform="matrix(1,0,0,1,-219.1,-167.785)">
        <path d="M744.71,186.54C743.61,186.54 742.78,186.26 742.22,185.7C741.65,185.14 741.37,184.38 741.37,183.42C741.37,182.46 741.66,181.69 742.25,181.11C742.84,180.53 743.66,180.24 744.72,180.24C745.78,180.24 746.6,180.52 747.19,181.08C747.78,181.64 748.07,182.42 748.07,183.42C748.07,184.34 747.78,185.09 747.19,185.67C746.59,186.25 745.77,186.54 744.71,186.54ZM742.54,223.2L742.54,193.07L746.94,193.07L746.94,223.2L742.54,223.2Z" style="fill:rgb(48,44,106);fill-rule:nonzero;"/>
    </g>
    <g transform="matrix(1,0,0,1,-219.1,-167.785)">
        <path d="M771.83,223.78C768.78,223.78 766.07,223.13 763.7,221.82C761.33,220.51 759.48,218.68 758.15,216.34C756.82,213.99 756.15,211.3 756.15,208.26C756.15,205.91 756.52,203.79 757.27,201.88C758.01,199.97 759.06,198.31 760.41,196.89C761.76,195.47 763.37,194.36 765.25,193.57C767.13,192.78 769.16,192.39 771.35,192.39C773.42,192.39 775.31,192.76 777.01,193.49C778.71,194.22 780.18,195.23 781.41,196.52C782.64,197.81 783.57,199.34 784.2,201.11C784.83,202.88 785.1,204.82 785.02,206.94L784.96,208.96L759.42,208.96L758.77,205.32L781.61,205.32L780.55,206.3L780.55,204.91C780.47,203.52 780.06,202.19 779.32,200.9C778.58,199.61 777.53,198.56 776.18,197.75C774.83,196.94 773.22,196.54 771.34,196.54C769.15,196.54 767.25,196.97 765.65,197.84C764.04,198.71 762.81,199.99 761.95,201.68C761.09,203.37 760.66,205.47 760.66,207.97C760.66,210.36 761.13,212.43 762.07,214.18C763.01,215.93 764.35,217.29 766.09,218.25C767.83,219.21 769.93,219.69 772.4,219.69C773.85,219.69 775.29,219.45 776.71,218.97C778.14,218.49 779.71,217.54 781.44,216.11L783.73,219.23C782.83,220.12 781.75,220.9 780.5,221.57C779.25,222.24 777.88,222.78 776.39,223.19C774.92,223.57 773.4,223.78 771.83,223.78Z" style="fill:rgb(48,44,106);fill-rule:nonzero;"/>
    </g>
    <g transform="matrix(1,0,0,1,-219.1,-167.785)">
        <path d="M793.08,223.2L793.08,180.48L797.48,180.48L797.48,199.65L796.6,200.52C797.03,198.94 797.83,197.55 799.01,196.33C800.18,195.12 801.56,194.17 803.15,193.47C804.74,192.78 806.35,192.43 807.99,192.43C810.34,192.43 812.29,192.87 813.86,193.76C815.42,194.65 816.59,196.01 817.35,197.86C818.11,199.71 818.5,202.06 818.5,204.9L818.5,223.2L814.04,223.2L814.04,205.13C814.04,203.13 813.78,201.48 813.25,200.19C812.72,198.9 811.91,197.95 810.81,197.33C809.71,196.72 808.34,196.43 806.7,196.46C805.41,196.46 804.19,196.68 803.06,197.12C801.92,197.56 800.95,198.17 800.12,198.94C799.3,199.71 798.65,200.6 798.18,201.6C797.71,202.6 797.48,203.68 797.48,204.83L797.48,223.19L794.37,223.19C794.02,223.19 793.59,223.2 793.08,223.2Z" style="fill:rgb(48,44,106);fill-rule:nonzero;"/>
    </g>
    <g transform="matrix(1,0,0,1,-219.1,-167.785)">
        <path d="M839.51,223.78C837.16,223.78 835.18,223.31 833.55,222.37C831.93,221.43 830.69,220.05 829.85,218.24C829.01,216.43 828.59,214.18 828.59,211.49L828.59,193.07L833.05,193.07L833.05,210.62C833.05,212.66 833.33,214.36 833.9,215.73C834.47,217.1 835.33,218.13 836.48,218.82C837.63,219.51 839.05,219.86 840.74,219.86C842.03,219.86 843.22,219.64 844.32,219.2C845.41,218.76 846.37,218.15 847.2,217.38C848.02,216.61 848.67,215.71 849.14,214.67C849.61,213.63 849.84,212.53 849.84,211.38L849.84,193.08L854.24,193.08L854.24,223.21L849.9,223.21L849.72,216.86L850.42,216.51C849.95,217.86 849.17,219.08 848.07,220.18C846.97,221.28 845.67,222.15 844.17,222.81C842.68,223.45 841.12,223.78 839.51,223.78Z" style="fill:rgb(48,44,106);fill-rule:nonzero;"/>
    </g>
    <g transform="matrix(1,0,0,1,-219.1,-167.785)">
        <path d="M867.93,186.54C866.83,186.54 866,186.26 865.44,185.7C864.87,185.14 864.59,184.38 864.59,183.42C864.59,182.46 864.88,181.69 865.47,181.11C866.06,180.53 866.88,180.24 867.94,180.24C869,180.24 869.82,180.52 870.41,181.08C871,181.64 871.29,182.42 871.29,183.42C871.29,184.34 871,185.09 870.41,185.67C869.81,186.25 868.98,186.54 867.93,186.54ZM865.75,223.2L865.75,193.07L870.15,193.07L870.15,223.2L865.75,223.2Z" style="fill:rgb(48,44,106);fill-rule:nonzero;"/>
    </g>
    <g transform="matrix(1,0,0,1,-219.1,-167.785)">
        <path d="M891.58,223.78C888.96,223.78 886.61,223.3 884.54,222.34C882.46,221.38 880.82,220.11 879.61,218.53L882.72,215.87C883.86,217.22 885.19,218.24 886.74,218.93C888.29,219.62 890.02,219.97 891.94,219.97C892.92,219.97 893.8,219.86 894.58,219.65C895.36,219.44 896.05,219.12 896.63,218.7C897.22,218.28 897.67,217.78 897.98,217.2C898.29,216.62 898.45,215.99 898.45,215.3C898.45,214.03 897.88,212.97 896.75,212.12C896.24,211.77 895.52,211.42 894.58,211.05C893.64,210.69 892.51,210.33 891.18,209.98C888.99,209.37 887.17,208.74 885.72,208.1C884.27,207.46 883.14,206.72 882.31,205.88C881.72,205.19 881.28,204.44 880.99,203.63C880.7,202.82 880.55,201.94 880.55,200.98C880.55,199.75 880.81,198.61 881.34,197.57C881.87,196.53 882.61,195.62 883.57,194.83C884.53,194.04 885.66,193.44 886.98,193.04C888.29,192.64 889.71,192.43 891.24,192.43C892.69,192.43 894.12,192.62 895.53,193.01C896.94,193.4 898.25,193.95 899.46,194.68C900.67,195.41 901.71,196.28 902.57,197.28L899.87,200.17C899.13,199.4 898.3,198.71 897.4,198.09C896.5,197.47 895.55,196.99 894.55,196.65C893.55,196.3 892.52,196.13 891.47,196.13C890.53,196.13 889.66,196.25 888.86,196.48C888.06,196.71 887.37,197.03 886.81,197.43C886.24,197.83 885.81,198.33 885.52,198.9C885.23,199.48 885.08,200.11 885.08,200.81C885.08,201.39 885.2,201.91 885.43,202.37C885.66,202.83 886,203.24 886.43,203.58C886.98,204 887.75,204.4 888.75,204.76C889.75,205.13 890.99,205.5 892.48,205.89C894.2,206.35 895.66,206.82 896.85,207.3C898.04,207.78 899.03,208.35 899.81,209C900.87,209.77 901.62,210.66 902.07,211.66C902.52,212.66 902.75,213.8 902.75,215.07C902.75,216.76 902.27,218.26 901.31,219.57C900.35,220.88 899.03,221.91 897.35,222.66C895.65,223.4 893.73,223.78 891.58,223.78Z" style="fill:rgb(48,44,106);fill-rule:nonzero;"/>
    </g>
    <g transform="matrix(1,0,0,1,-219.1,-167.785)">
        <path d="M550.99,317.41L534.62,262.84L548.11,262.84L556.3,291.53C556.66,292.83 556.99,294.14 557.27,295.47C557.56,296.8 557.79,298.06 557.97,299.25C558.15,300.45 558.29,301.55 558.4,302.56C558.5,303.57 558.61,304.42 558.71,305.09L557,305.09C557.31,303.17 557.58,301.45 557.82,299.94C558.05,298.43 558.33,297.02 558.64,295.69C558.95,294.36 559.34,292.97 559.81,291.52L567.92,269.93L578.52,269.93L586.47,291.52C587.09,293.23 587.61,294.85 588.03,296.35C588.45,297.86 588.77,299.3 589,300.68C589.23,302.06 589.43,303.42 589.58,304.77L588.02,305C588.12,304.06 588.2,303.19 588.25,302.39C588.3,301.58 588.37,300.8 588.44,300.05C588.52,299.3 588.61,298.5 588.71,297.67C588.81,296.84 588.97,295.92 589.18,294.9C589.39,293.89 589.67,292.73 590.04,291.43L598.15,262.82L611.32,262.82L594.95,317.39L584.82,317.39L571.88,285.97L573.36,286.13L561.43,317.39L550.99,317.39L550.99,317.41Z" style="fill:rgb(48,44,106);fill-rule:nonzero;"/>
    </g>
    <g transform="matrix(1,0,0,1,-219.1,-167.785)">
        <path d="M610.86,317.41L632.45,262.84L643.68,262.84L665.12,317.41L651.71,317.41L641.42,289.74C641,288.65 640.59,287.48 640.17,286.23C639.75,284.98 639.34,283.7 638.92,282.37C638.5,281.04 638.1,279.75 637.71,278.47C637.32,277.2 637,276.01 636.74,274.92L639.08,274.84C638.77,276.14 638.42,277.41 638.03,278.66C637.64,279.91 637.25,281.14 636.86,282.36C636.47,283.58 636.04,284.8 635.57,286.02C635.1,287.24 634.66,288.5 634.24,289.8L623.95,317.4L610.86,317.4L610.86,317.41ZM621.15,306.96L625.28,296.98L650.38,296.98L654.43,306.96L621.15,306.96Z" style="fill:rgb(48,44,106);fill-rule:nonzero;"/>
    </g>
    <g transform="matrix(1,0,0,1,-219.1,-167.785)">
        <path d="M682.19,317.41L682.19,274.53L665.98,274.53L665.98,262.84L712.05,262.84L712.05,274.53L695.44,274.53L695.44,317.41L682.19,317.41Z" style="fill:rgb(48,44,106);fill-rule:nonzero;"/>
    </g>
    <g transform="matrix(1,0,0,1,-219.1,-167.785)">
        <path d="M723.74,317.41L723.74,262.84L761.78,262.84L761.78,274.14L736.6,274.14L736.6,306.1L762.56,306.1L762.56,317.4L723.74,317.4L723.74,317.41ZM729.98,295.03L729.98,284.27L758.28,284.27L758.28,295.03L729.98,295.03Z" style="fill:rgb(48,44,106);fill-rule:nonzero;"/>
    </g>
    <g transform="matrix(1,0,0,1,-219.1,-167.785)">
        <path d="M776.36,317.42L776.36,262.84L800.92,262.84C804.4,262.84 807.56,263.59 810.39,265.1C813.22,266.61 815.44,268.67 817.06,271.3C818.67,273.93 819.48,276.9 819.48,280.23C819.48,283.66 818.67,286.74 817.06,289.47C815.45,292.2 813.24,294.34 810.43,295.9C807.62,297.46 804.45,298.24 800.92,298.24L788.99,298.24L788.99,317.42L776.36,317.42ZM788.99,288.09L799.75,288.09C801.1,288.09 802.28,287.79 803.3,287.19C804.31,286.59 805.09,285.75 805.64,284.66C806.18,283.57 806.46,282.32 806.46,280.92C806.46,279.52 806.15,278.28 805.52,277.22C804.9,276.15 804,275.34 802.83,274.76C801.66,274.19 800.24,273.9 798.58,273.9L788.99,273.9L788.99,288.09ZM806.61,317.41L792.73,292.78L806.29,290.83L821.73,317.41L806.61,317.41Z" style="fill:rgb(48,44,106);fill-rule:nonzero;"/>
    </g>
    <g transform="matrix(1,0,0,1,-219.1,-167.785)">
        <path d="M359.87,203.75L312.59,251.03L265.31,203.75L293.28,175.78C303.94,165.12 321.24,165.12 331.9,175.78L359.87,203.75Z" style="fill:rgb(48,44,106);fill-rule:nonzero;"/>
    </g>
    <g transform="matrix(1,0,0,1,-219.1,-167.785)">
        <path d="M454.44,203.75L407.16,251.03L359.88,203.75L387.85,175.78C398.51,165.12 415.81,165.12 426.47,175.78L454.44,203.75Z" style="fill:rgb(48,44,106);fill-rule:nonzero;"/>
    </g>
    <g transform="matrix(1,0,0,1,-219.1,-167.785)">
        <path d="M408.23,298.4L360.95,251.12L313.67,298.4L341.64,326.37C352.3,337.03 369.6,337.03 380.26,326.37L408.23,298.4Z" style="fill:rgb(48,44,106);fill-rule:nonzero;"/>
    </g>
    <g transform="matrix(1,0,0,1,-219.1,-167.785)">
        <path d="M313.66,298.4L266.38,251.12L219.1,298.4L247.07,326.37C257.73,337.03 275.03,337.03 285.69,326.37L313.66,298.4Z" style="fill:rgb(48,44,106);fill-rule:nonzero;"/>
    </g>
    <g transform="matrix(1,0,0,1,-219.1,-167.785)">
        <path d="M502.8,298.4L455.52,251.12L408.24,298.4L436.21,326.37C446.87,337.03 464.17,337.03 474.83,326.37L502.8,298.4Z" style="fill:rgb(48,44,106);fill-rule:nonzero;"/>
    </g>
</svg>
